<svg width="17" height="13" viewBox="0 0 17 13" fill="none" xmlns="http://www.w3.org/2000/svg">
<path d="M10.6105 6.51819L11.5761 5.55264C11.6463 5.81548 11.6875 6.09027 11.6875 6.37502C11.6875 8.13265 10.2576 9.56251 8.5 9.56251C8.21525 9.56251 7.94046 9.52134 7.67762 9.45108L8.64317 8.48553C9.6989 8.41355 10.5385 7.57391 10.6105 6.51819ZM16.9331 6.11696C16.8677 5.99942 15.941 4.37553 14.1294 2.99933L13.3563 3.77243C14.6772 4.74368 15.5142 5.87644 15.8437 6.37581C15.2141 7.33458 12.744 10.625 8.5 10.625C7.86356 10.625 7.27175 10.5436 6.71487 10.4137L5.84189 11.2867C6.64448 11.5328 7.52662 11.6875 8.5 11.6875C14.0613 11.6875 16.8184 6.83933 16.9331 6.63307C17.0223 6.4725 17.0223 6.27753 16.9331 6.11696ZM14.7193 0.906874L3.03184 12.5943C2.92812 12.6981 2.79212 12.75 2.65625 12.75C2.52038 12.75 2.38438 12.6981 2.28066 12.5943C2.07307 12.3868 2.07307 12.0506 2.28066 11.8432L3.76763 10.3562C1.36372 8.90496 0.142242 6.76867 0.0669375 6.63307C-0.0223125 6.4725 -0.0223125 6.2774 0.0669375 6.11683C0.181555 5.91071 2.93874 1.06253 8.5 1.06253C9.93796 1.06253 11.1835 1.39058 12.2482 1.87561L13.9682 0.155689C14.1757 -0.0518963 14.5119 -0.0518963 14.7193 0.155689C14.9268 0.363274 14.9269 0.699422 14.7193 0.906874ZM4.55985 9.56397L5.90484 8.21898C5.53337 7.69783 5.3125 7.06232 5.3125 6.37502C5.3125 4.61738 6.74236 3.18753 8.5 3.18753C9.1873 3.18753 9.82281 3.40839 10.344 3.77973L11.4316 2.69214C10.5723 2.34802 9.59584 2.12503 8.5 2.12503C4.25598 2.12503 1.78593 5.41545 1.1564 6.37422C1.55616 6.98011 2.70526 8.51382 4.55985 9.56397ZM6.67609 7.44761L9.57259 4.55111C9.25663 4.36451 8.89286 4.25002 8.5 4.25002C7.32833 4.25002 6.375 5.20335 6.375 6.37502C6.375 6.76787 6.48948 7.13165 6.67609 7.44761Z" fill="#DEE1E1"/>
</svg>
