<svg width="17" height="12" viewBox="0 0 17 12" fill="none" xmlns="http://www.w3.org/2000/svg">
<path d="M16.892 5.81267C16.7401 5.60492 13.1215 0.725739 8.49992 0.725739C3.87834 0.725739 0.259583 5.60492 0.107877 5.81247C-0.0359591 6.00957 -0.0359591 6.27689 0.107877 6.47398C0.259583 6.68173 3.87834 11.5609 8.49992 11.5609C13.1215 11.5609 16.7401 6.6817 16.892 6.47415C17.036 6.27709 17.036 6.00957 16.892 5.81267ZM8.49992 10.44C5.09563 10.44 2.14715 7.20163 1.27434 6.14294C2.14602 5.08333 5.08833 1.84661 8.49992 1.84661C11.9041 1.84661 14.8523 5.08446 15.7255 6.14371C14.8538 7.20329 11.9115 10.44 8.49992 10.44Z" fill="#DEE1E1"/>
<path d="M8.49999 2.78067C6.64585 2.78067 5.13733 4.2892 5.13733 6.14333C5.13733 7.99746 6.64585 9.50599 8.49999 9.50599C10.3541 9.50599 11.8626 7.99746 11.8626 6.14333C11.8626 4.2892 10.3541 2.78067 8.49999 2.78067ZM8.49999 8.38508C7.26383 8.38508 6.25824 7.37945 6.25824 6.14333C6.25824 4.90721 7.26386 3.90158 8.49999 3.90158C9.73611 3.90158 10.7417 4.90721 10.7417 6.14333C10.7417 7.37945 9.73614 8.38508 8.49999 8.38508Z" fill="#DEE1E1"/>
</svg>
